<svg xmlns="http://www.w3.org/2000/svg" width="64" height="64" enable-background="new 0 0 64 64" viewBox="0 0 64 64"><circle cx="25" cy="24.999" r="21.001" fill="#94C1FF"/><polygon fill="#94C1FF" points="36 18.999 36 30.999 25 37.999 25 25.999"/><path fill="#94C1FF" d="M61.83,56.169c1.561,1.561,1.561,4.1,0,5.66c-1.56,1.56-4.1,1.56-5.66,0l-11.58-11.58l1.42-1.41l2.82-2.83
			l1.42-1.42L61.83,56.169z"/><path fill="#FFF" d="M39.851,39.849c8.199-8.199,8.199-21.5,0-29.699c-8.2-8.2-21.5-8.2-29.7,0c-8.2,8.199-8.2,21.5,0,29.699
			C18.351,48.049,31.65,48.049,39.851,39.849z M41.971,8.029c8.89,8.89,9.35,23.04,1.35,32.46c-0.42,0.51-0.87,1-1.35,1.479
			c-0.48,0.48-0.971,0.931-1.48,1.351c-9.43,8-23.57,7.54-32.46-1.351c-9.37-9.37-9.38-24.569,0-33.939
			C17.4-1.341,32.601-1.341,41.971,8.029z"/><polygon fill="#D7E9FF" points="36 18.999 25 25.999 13.99 18.999 25 11.999"/><path fill="#D7E9FF" d="M41.971,41.969c0.479-0.479,0.93-0.97,1.35-1.479l5.51,5.52l-2.82,2.83L46,48.829l-5.5-5.5l-0.01-0.01
			C41,42.899,41.49,42.449,41.971,41.969z"/><polygon fill="#FFF" points="25 25.999 25 37.999 13.99 30.999 13.99 18.999"/><path fill="#116FFF" d="M25,46.998c-5.877,0-11.401-2.288-15.557-6.443C5.288,36.401,3,30.877,3,24.999
					c0-5.877,2.288-11.401,6.443-15.556C13.599,5.288,19.123,3,25,3s11.401,2.288,15.557,6.443c8.577,8.577,8.577,22.534,0,31.111
					C36.401,44.71,30.877,46.998,25,46.998z M25,5c-5.343,0-10.365,2.08-14.143,5.857C7.08,14.634,5,19.656,5,24.999
					s2.08,10.365,5.857,14.142c3.777,3.777,8.8,5.857,14.143,5.857s10.365-2.08,14.143-5.857c7.798-7.798,7.798-20.485,0-28.283
					C35.365,7.08,30.343,5,25,5z"/><path fill="#116FFF" d="M25,49.998c-6.678,0-12.956-2.6-17.678-7.321S0.001,31.677,0,24.999c0-6.678,2.601-12.956,7.322-17.677
					C12.045,2.601,18.323,0,25,0c6.678,0,12.956,2.601,17.678,7.322c9.747,9.747,9.747,25.606,0,35.354
					C37.955,47.398,31.677,49.998,25,49.998z M25,2C18.857,2,13.081,4.393,8.736,8.736C4.393,13.08,2,18.855,2,24.999
					c0.001,6.144,2.393,11.92,6.736,16.264S18.856,47.998,25,47.998c6.143,0,11.919-2.392,16.264-6.735
					c8.967-8.968,8.967-23.56,0-32.526C36.92,4.393,31.144,2,25,2z"/><path fill="#116FFF" d="M46.006 49.834c-.256 0-.512-.098-.707-.293l-5.508-5.509c-.391-.391-.391-1.023 0-1.414s1.023-.391 1.414 0l5.508 5.509c.391.391.391 1.023 0 1.414C46.518 49.736 46.262 49.834 46.006 49.834zM48.834 47.006c-.256 0-.512-.098-.707-.293l-5.514-5.515c-.391-.391-.391-1.023 0-1.414s1.023-.391 1.414 0l5.514 5.515c.391.391.391 1.023 0 1.414C49.346 46.908 49.09 47.006 48.834 47.006z"/><path fill="#116FFF" d="M44.592,51.248c-0.256,0-0.512-0.098-0.707-0.293c-0.391-0.391-0.391-1.023,0-1.414l5.656-5.658
					c0.391-0.391,1.023-0.391,1.414,0s0.391,1.023,0,1.414l-5.656,5.658C45.104,51.15,44.848,51.248,44.592,51.248z"/><path fill="#116FFF" d="M56.172 62.828c-.256 0-.512-.098-.707-.293l-11.58-11.58c-.391-.391-.391-1.023 0-1.414s1.023-.391 1.414 0l11.58 11.58c.391.391.391 1.023 0 1.414C56.684 62.73 56.428 62.828 56.172 62.828zM61.828 57.173c-.256 0-.512-.098-.707-.293l-11.58-11.583c-.391-.391-.391-1.023 0-1.414s1.023-.391 1.414 0l11.58 11.583c.391.391.391 1.023 0 1.414C62.34 57.075 62.084 57.173 61.828 57.173z"/><path fill="#116FFF" d="M59.001 64c-1.336 0-2.592-.521-3.536-1.465-.391-.391-.391-1.023 0-1.414s1.023-.391 1.414 0c1.133 1.132 3.11 1.136 4.241 0 .567-.566.88-1.32.88-2.122 0-.801-.312-1.553-.878-2.118-.392-.391-.392-1.023-.002-1.414.391-.393 1.025-.391 1.414-.002C63.479 56.408 64 57.663 64 58.999s-.521 2.592-1.465 3.536C61.592 63.479 60.337 64 59.001 64zM24.999 39c-.553 0-1-.447-1-1V25.998c0-.553.447-1 1-1s1 .447 1 1V38C25.999 38.553 25.552 39 24.999 39z"/><path fill="#116FFF" d="M25,39c-0.331,0-0.654-0.164-0.845-0.463c-0.297-0.466-0.159-1.084,0.307-1.381l11.006-7.002
				c0.468-0.296,1.085-0.158,1.381,0.307c0.297,0.466,0.159,1.084-0.307,1.381l-11.006,7.002C25.369,38.949,25.184,39,25,39z"/><path fill="#116FFF" d="M24.998 39c-.184 0-.369-.051-.536-.156l-11.006-7.002c-.466-.297-.604-.915-.307-1.381.297-.465.912-.603 1.381-.307l11.006 7.002c.466.297.604.915.307 1.381C25.652 38.836 25.329 39 24.998 39zM25 27.002c-.331 0-.654-.164-.845-.463-.297-.466-.159-1.084.307-1.381l11.006-7.002c.468-.296 1.085-.157 1.381.307.297.466.159 1.084-.307 1.381l-11.006 7.002C25.369 26.951 25.184 27.002 25 27.002z"/><path fill="#116FFF" d="M24.998,27.002c-0.184,0-0.369-0.051-0.536-0.156l-11.006-7.004c-0.466-0.297-0.604-0.915-0.307-1.381
				c0.297-0.465,0.915-0.602,1.381-0.307l11.006,7.004c0.466,0.297,0.604,0.915,0.307,1.381
				C25.652,26.838,25.328,27.002,24.998,27.002z"/><path fill="#116FFF" d="M13.994,20c-0.331,0-0.654-0.164-0.845-0.463c-0.297-0.466-0.159-1.084,0.307-1.381l11.006-7.002
				c0.469-0.296,1.085-0.158,1.381,0.307c0.297,0.466,0.159,1.084-0.307,1.381L14.53,19.844C14.363,19.949,14.178,20,13.994,20z"/><path fill="#116FFF" d="M36.004 20.002c-.184 0-.369-.051-.536-.156l-11.006-7.004c-.466-.297-.604-.915-.307-1.381.297-.465.915-.602 1.381-.307l11.006 7.004c.466.297.604.915.307 1.381C36.658 19.838 36.334 20.002 36.004 20.002zM13.993 31.998c-.553 0-1-.447-1-1V19c0-.553.447-1 1-1s1 .447 1 1v11.998C14.993 31.551 14.546 31.998 13.993 31.998z"/><path fill="#116FFF" d="M36.005,31.998c-0.553,0-1-0.447-1-1V19c0-0.553,0.447-1,1-1s1,0.447,1,1v11.998
				C37.005,31.551,36.558,31.998,36.005,31.998z"/></svg>