<?xml version="1.0" ?><svg width="64px" height="64px" viewBox="0 0 64 64" xmlns="https://www.w3.org/2000/svg"><defs><style>.cls-1{fill:#f57c00;}.cls-2{fill:#666;}.cls-3{fill:#999;}</style></defs><title/><g data-name="outline color" id="outline_color"><path class="cls-1" d="M34.5,60a11.5,11.5,0,1,1,3-22.59.93.93,0,0,1,.61.47,1,1,0,0,1,.09.76A5,5,0,0,0,43,45a4.91,4.91,0,0,0,1.36-.19,1,1,0,0,1,.76.09.93.93,0,0,1,.47.61A11.45,11.45,0,0,1,34.5,60Zm0-21A9.5,9.5,0,1,0,44,48.5a8.38,8.38,0,0,0-.14-1.56A6.11,6.11,0,0,1,43,47a7,7,0,0,1-7-7,6.11,6.11,0,0,1,.06-.86A9.32,9.32,0,0,0,34.5,39Z"/><path class="cls-1" d="M34,36a1,1,0,0,1-.56-.17C33.19,35.66,31,34.13,31,32s2.19-3.66,2.44-3.83a1,1,0,0,1,1.12,0c.25.17,2.44,1.7,2.44,3.83s-2.19,3.66-2.44,3.83A1,1,0,0,1,34,36Zm0-5.71A2.72,2.72,0,0,0,33,32a2.75,2.75,0,0,0,1,1.71A2.72,2.72,0,0,0,35,32,2.75,2.75,0,0,0,34,30.29Z"/><path class="cls-1" d="M59,60H44.49a1,1,0,0,1,0-2H58V29H42v6.25a1,1,0,0,1-2,0V28a1,1,0,0,1,1-1H59a1,1,0,0,1,1,1V59A1,1,0,0,1,59,60Z"/><path class="cls-1" d="M52,32H48a1,1,0,0,1,0-2h4a1,1,0,0,1,0,2Z"/><path class="cls-1" d="M50,57a1,1,0,0,1-1-1,1.36,1.36,0,0,1,0-.2.64.64,0,0,1,.06-.18.76.76,0,0,1,.09-.18,1.58,1.58,0,0,1,.12-.15A1,1,0,0,1,50.2,55a.64.64,0,0,1,.18.06l.18.09.15.12a1,1,0,0,1,0,1.42l-.15.12-.18.09a.64.64,0,0,1-.18.06Z"/><path class="cls-2" d="M14.92,29.18a4,4,0,1,1,3.65-5.63h0a4,4,0,0,1,.08,3.06,4,4,0,0,1-3.73,2.57Zm0-6a2,2,0,0,0-1.86,1.29,2,2,0,1,0,1.86-1.29Z"/><path class="cls-2" d="M21.62,26.47a1,1,0,0,1-.91-.59L18.26,20.4a1,1,0,1,1,1.82-.81l2.45,5.48a1,1,0,0,1-.5,1.32A1,1,0,0,1,21.62,26.47Z"/><path class="cls-2" d="M23.39,23a1,1,0,0,1-.82-.42,3.32,3.32,0,0,1-.36-.67,4,4,0,0,1,2-5.25,3.12,3.12,0,0,1,.67-.23,1,1,0,1,1,.46,1.94,2.19,2.19,0,0,0-.33.12,2,2,0,0,0-1,2.63,1.39,1.39,0,0,0,.17.3A1,1,0,0,1,24,22.79,1,1,0,0,1,23.39,23Z"/><path class="cls-2" d="M18.85,34.88a1,1,0,0,1-1-.73,4,4,0,0,1,1.66-4.41,1,1,0,0,1,1.28,1.53h0a1.09,1.09,0,0,1-.17.13,2,2,0,0,0-.84,2.2,1,1,0,0,1-.69,1.23A.84.84,0,0,1,18.85,34.88Z"/><path class="cls-2" d="M17.48,39.28a1,1,0,0,1-.91-.6l-2.45-5.47A1,1,0,1,1,16,32.39l2.44,5.48a1,1,0,0,1-.5,1.32A1,1,0,0,1,17.48,39.28Z"/><path class="cls-3" d="M56.88,25a.92.92,0,0,1-.36-.07A1,1,0,0,1,56,23.64l1.86-4.87a3,3,0,0,0-1.74-3.87L33.65,6.33a3,3,0,0,0-3.88,1.74l-.39,1a1,1,0,1,1-1.86-.72l.39-1a5,5,0,0,1,6.46-2.88L56.79,13a5,5,0,0,1,2.89,6.44l-1.87,4.88A1,1,0,0,1,56.88,25Z"/><path class="cls-2" d="M34.36,19.71a4,4,0,1,1,3.73-2.58,4,4,0,0,1-3.73,2.58Zm0-6a2,2,0,0,0-.72,3.87,2,2,0,0,0,2.58-1.15h0a2,2,0,0,0-1.15-2.59A2.27,2.27,0,0,0,34.36,13.7Z"/><path class="cls-2" d="M38.89,21.65a.92.92,0,0,1-.36-.07A1,1,0,0,1,38,20.29l2.15-5.6A1,1,0,1,1,42,15.4L39.82,21A1,1,0,0,1,38.89,21.65Z"/><path class="cls-2" d="M45.56,24A4,4,0,1,1,47,16.25a4,4,0,0,1,2.31,5.17A4,4,0,0,1,45.56,24Zm0-6a2,2,0,0,0-.72,3.87,2,2,0,0,0,1.53-.05,1.94,1.94,0,0,0,1-1.11h0a2,2,0,0,0-1.15-2.58A2,2,0,0,0,45.57,18Z"/><path class="cls-2" d="M50.1,25.93a1.13,1.13,0,0,1-.36-.06,1,1,0,0,1-.58-1.29L51.3,19a1,1,0,0,1,1.3-.58,1,1,0,0,1,.57,1.29L51,25.29A1,1,0,0,1,50.1,25.93Z"/><path class="cls-2" d="M30.62,27.61a1,1,0,0,1-1-.84,4,4,0,1,1,8-.9,1,1,0,1,1-2,.12,2,2,0,0,0-3.87-.59,2.07,2.07,0,0,0-.1,1.05,1,1,0,0,1-.83,1.15Z"/><path class="cls-2" d="M26.91,27.77a1.13,1.13,0,0,1-.36-.06A1,1,0,0,1,26,26.42l2.14-5.61a1,1,0,0,1,1.29-.57A1,1,0,0,1,30,21.53l-2.15,5.6A1,1,0,0,1,26.91,27.77Z"/><path class="cls-3" d="M18.61,53.67a1,1,0,0,1-.77-.36,5.25,5.25,0,0,1-.73-1.16L4.46,23.84A5,5,0,0,1,7,17.23L28,7.82a1,1,0,0,1,1.34,1.27L18.71,37a3,3,0,0,0,1.45,3.75,1,1,0,1,1-.9,1.78,5,5,0,0,1-2.41-6.25l9.81-25.68L7.8,19.05a3,3,0,0,0-1.52,4l12.65,28.3a3.15,3.15,0,0,0,.45.71,1,1,0,0,1-.13,1.41A1,1,0,0,1,18.61,53.67Z"/></g></svg>